<svg id="图层_1" data-name="图层 1" xmlns="http://www.w3.org/2000/svg" viewBox="0 0 1417.32 1417.32"><defs><style>.cls-1,.cls-6{fill:none;stroke-miterlimit:10;}.cls-1{stroke:gray;stroke-width:30px;}.cls-2{fill:#fff;}.cls-3{fill:#87d067;opacity:0.56;}.cls-4,.cls-7{fill:gray;}.cls-5{fill:#f2f2f2;}.cls-6{stroke:#87d067;stroke-width:16px;}.cls-7{font-size:300px;font-family:Arial-Black, Arial Black;}</style></defs><title>营业数据</title><line class="cls-1" x1="624.06" y1="795" x2="476.19" y2="1192.6"/><line class="cls-1" x1="796.12" y1="795" x2="943.99" y2="1192.6"/><rect class="cls-2" x="323.66" y="333" width="770" height="462"/><path class="cls-3" d="M410.64,497.24s33.55-37.74,111.13-33.55c33.65,1.82,93.43,18,148.88,2.1,49.32-14.18,95.63-44,120.17-61.66a73.48,73.48,0,0,1,42.85-13.83h63.71a147.23,147.23,0,0,1,73.82,19.85l58,33.62V688.06H410.64Z"/><rect class="cls-4" x="301.86" y="202.63" width="813.61" height="130.37"/><line class="cls-1" x1="708.66" y1="795" x2="708.66" y2="1295.52"/><rect class="cls-5" x="465.5" y="471.94" width="41.11" height="216.11"/><rect class="cls-5" x="565.76" y="471.94" width="41.11" height="216.11"/><rect class="cls-5" x="656.82" y="465.79" width="41.11" height="222.27"/><rect class="cls-5" x="747.88" y="406.89" width="41.11" height="281.17"/><rect class="cls-5" x="836.89" y="390.3" width="41.11" height="297.76"/><rect class="cls-5" x="931.52" y="390.3" width="41.11" height="297.76"/><path class="cls-6" d="M410.64,497.24s33.55-37.74,111.13-33.55c33.65,1.82,93.43,18,148.88,2.1,49.32-14.18,95.63-44,120.17-61.66a73.48,73.48,0,0,1,42.85-13.83h63.71a147.23,147.23,0,0,1,73.82,19.85l58,33.62"/><text class="cls-7" transform="translate(606.87 640.38)">$</text></svg>