<?xml version="1.0" standalone="no"?><!DOCTYPE svg PUBLIC "-//W3C//DTD SVG 1.1//EN" "http://www.w3.org/Graphics/SVG/1.1/DTD/svg11.dtd"><svg t="1533017053842" class="icon" style="" viewBox="0 0 1024 1024" version="1.1" xmlns="http://www.w3.org/2000/svg" p-id="11932" xmlns:xlink="http://www.w3.org/1999/xlink" width="200" height="200"><defs><style type="text/css"></style></defs><path d="M213.333333 213.333333h405.333334v128H213.333333zM192 917.333333h640v-42.666666c0-23.466667-19.2-42.666667-42.666667-42.666667H234.666667c-23.466667 0-42.666667 19.2-42.666667 42.666667v42.666666z" fill="#455A64" p-id="11933"></path><path d="M742.4 349.866667l-106.666667-72.533334 106.666667-72.533333 89.6 55.466667L874.666667 192l-134.4-85.333333-247.466667 170.666666 247.466667 170.666667 134.4-85.333333-42.666667-68.266667zM341.333333 234.666667H192l192 597.333333h149.333333z" fill="#455A64" p-id="11934"></path><path d="M482.133333 659.2c-8.533333-12.8-21.333333-19.2-36.266666-19.2H405.333333c-14.933333 0-27.733333 6.4-36.266666 19.2L256 832h341.333333l-115.2-172.8zM426.666667 768c-23.466667 0-42.666667-19.2-42.666667-42.666667s19.2-42.666667 42.666667-42.666666 42.666667 19.2 42.666666 42.666666-19.2 42.666667-42.666666 42.666667zM277.333333 149.333333c-70.4 0-128 57.6-128 128s57.6 128 128 128 128-57.6 128-128-57.6-128-128-128z m0 170.666667c-23.466667 0-42.666667-19.2-42.666666-42.666667s19.2-42.666667 42.666666-42.666666 42.666667 19.2 42.666667 42.666666-19.2 42.666667-42.666667 42.666667zM640 384h-64c-23.466667 0-42.666667-19.2-42.666667-42.666667v-128c0-23.466667 19.2-42.666667 42.666667-42.666666h64v213.333333z" fill="#FFC107" p-id="11935"></path></svg>