<?xml version="1.0" standalone="no"?><!DOCTYPE svg PUBLIC "-//W3C//DTD SVG 1.1//EN" "http://www.w3.org/Graphics/SVG/1.1/DTD/svg11.dtd"><svg t="1532999392916" class="icon" style="" viewBox="0 0 1024 1024" version="1.1" xmlns="http://www.w3.org/2000/svg" p-id="8362" xmlns:xlink="http://www.w3.org/1999/xlink" width="200" height="200"><defs><style type="text/css"></style></defs><path d="M527.6 497.4m-405.3 0a405.3 405.3 0 1 0 810.6 0 405.3 405.3 0 1 0-810.6 0Z" fill="#FFFFFF" p-id="8363"></path><path d="M527.6 497.4m-311.3 0a311.3 311.3 0 1 0 622.6 0 311.3 311.3 0 1 0-622.6 0Z" fill="#19B5FE" p-id="8364"></path><path d="M815.2 782.9c-73.4 74-175.2 119.8-287.6 119.8-111.9 0-213.2-45.4-286.6-118.7l574.2-1.1z" fill="#F1F2F2" p-id="8365"></path><path d="M527.6 908.3c-226.8 0-411.3-184.5-411.3-411.3S300.8 85.7 527.6 85.7 938.9 270.2 938.9 497 754.4 908.3 527.6 908.3z m0-810.5c-220.1 0-399.2 179.1-399.2 399.2s179.1 399.2 399.2 399.2 399.2-179 399.2-399.2c0-220.1-179.1-399.2-399.2-399.2z" fill="#414042" p-id="8366"></path><path d="M247.1 323.7L225 310.9v-25.6l22.1-12.8 22.1 12.8v25.6l-22.1 12.8zM237 304l10.1 5.8 10.1-5.8v-11.6l-10.1-5.8-10.1 5.8V304zM347.7 379.6l-22.1-12.8v-25.6l22.1-12.8 22.1 12.8v25.6l-22.1 12.8z m-10.1-19.7l10.1 5.8 10.1-5.8v-11.6l-10.1-5.8-10.1 5.8v11.6zM731.6 628.2l-22.1-12.8v-25.6l22.1-12.8 22.1 12.8v25.6l-22.1 12.8z m-10-19.7l10.1 5.8 10.1-5.8v-11.6l-10.1-5.8-10.1 5.8v11.6zM216.3 522.6l-22.1-12.8v-25.6l22.1-12.8 22.1 12.8v25.6l-22.1 12.8z m-10-19.8l10.1 5.8 10.1-5.8v-11.6l-10.1-5.8-10.1 5.8v11.6zM359.8 292.1h100.3v12.1H359.8zM326.8 292.1h21v12.1h-21zM290.6 292.1h21v12.1h-21zM425.3 572h100.3v12.1H425.3zM392.3 572h21v12.1h-21zM356.1 572h21v12.1h-21zM75 491h100.3v12.1H75zM42 491h21v12.1H42zM5.9 491h21v12.1h-21zM800.8 534.4h100.3v12.1H800.8zM767.8 534.4h21v12.1h-21zM731.6 534.4h21v12.1h-21zM247.1 781.2H812v12.1H247.1zM388.2 186.1h18.1v12.1h-18.1zM352 186.1h18.1v12.1H352zM825.4 596.6h18.1v12.1h-18.1zM789.2 596.6h18.1v12.1h-18.1zM402.9 348h124v12.1h-124zM192.9 430.4h155v12.1h-155zM863.1 475.2h155.1v12.1H863.1z" fill="#414042" p-id="8367"></path><path d="M940.6 375.8m-42.9 0a42.9 42.9 0 1 0 85.8 0 42.9 42.9 0 1 0-85.8 0Z" fill="#F9BDA9" p-id="8368"></path><path d="M940.6 375.8m-30.3 0a30.3 30.3 0 1 0 60.6 0 30.3 30.3 0 1 0-60.6 0Z" fill="#F79C7F" p-id="8369"></path><path d="M940.6 375.8m-23.5 0a23.5 23.5 0 1 0 47 0 23.5 23.5 0 1 0-47 0Z" fill="#F47B54" p-id="8370"></path><path d="M940.6 375.8m-16.9 0a16.9 16.9 0 1 0 33.8 0 16.9 16.9 0 1 0-33.8 0Z" fill="#F15A29" p-id="8371"></path><path d="M480.9 787.2H114.2v-41.8c0-1.2 1-2.2 2.2-2.2h362.2c1.2 0 2.2 1 2.2 2.2v41.8z" fill="#F89406" p-id="8372"></path><path d="M467.5 743.2H127.6c-7.4 0-13.4 6-13.4 13.4v18.1c0-7.4 6-13.4 13.4-13.4h339.8c7.4 0 13.4 6 13.4 13.4v-18.1c0.1-7.4-5.9-13.4-13.3-13.4z" fill="#FBBF6A" p-id="8373"></path><path d="M486.9 793.2H108.2v-36.6c0-10.7 8.7-19.5 19.5-19.5h339.8c10.7 0 19.5 8.7 19.5 19.5v36.6z m-366.7-12h354.6v-24.6c0-4.1-3.3-7.4-7.4-7.4H127.6c-4.1 0-7.4 3.3-7.4 7.4v24.6z" fill="#414042" p-id="8374"></path><path d="M952.9 350.8l-9.3 22.9c-1.1 2.7-4.9 2.7-6 0l-9.3-22.9V220.5h24.5v130.3z" fill="#58595B" p-id="8375"></path><path d="M940.6 381.8c-3.8 0-7.2-2.3-8.6-5.8l-9.7-24V214.5h36.6V352l-9.7 24c-1.4 3.5-4.8 5.8-8.6 5.8z m-6.2-32.2l6.2 15.4 6.2-15.4v-123h-12.5v123z" fill="#414042" p-id="8376"></path><path d="M970.9 235.2h-60.6v-52.5l60.6 30.7z" fill="#58595B" p-id="8377"></path><path d="M976.9 241.2h-72.6v-68.3l72.6 36.8v31.5z m-60.5-12h48.5v-12.1l-48.5-24.6v36.7z" fill="#414042" p-id="8378"></path><path d="M658.6 192.2h246.1v45.5H658.6z" fill="#6D6E71" p-id="8379"></path><path d="M658.6 214.9h246.1v22.8H658.6z" fill="#58595B" p-id="8380"></path><path d="M910.7 243.7H652.6v-57.6h258.1v57.6z m-246.1-12.1h234v-33.4h-234v33.4z" fill="#414042" p-id="8381"></path><path d="M715.3 276.9H519.6c-11.7 0-21.2-9.5-21.2-21.2l-33.1-81.5c0-11.7 9.5-21.2 21.2-21.2h228.7c11.7 0 21.2 9.5 21.2 21.2v81.5c0 11.7-9.5 21.2-21.1 21.2z" fill="#F89406" p-id="8382"></path><path d="M715.3 153.1H486.6c-11.7 0-21.2 9.5-21.2 21.2l2.1 5.3h227.9c11.7 0 21.2 9.5 21.2 21.2v76.1c11.1-0.7 19.8-9.8 19.8-21v-81.5c0-11.8-9.5-21.3-21.1-21.3z" fill="#FBBF6A" p-id="8383"></path><path d="M715.3 282.9H519.6c-14.6 0-26.5-11.5-27.2-25.9l-33.1-81.6v-1.2c0-15 12.2-27.2 27.2-27.2h228.7c15 0 27.2 12.2 27.2 27.2v81.5c0 15-12.2 27.2-27.1 27.2zM471.5 173.2l33 81.4v1.2c0 8.3 6.8 15.1 15.1 15.1h195.6c8.3 0 15.1-6.8 15.1-15.1v-81.5c0-8.3-6.8-15.1-15.1-15.1H486.6c-8-0.1-14.6 6.1-15.1 14z" fill="#414042" p-id="8384"></path><path d="M731 514.7l-311-311c-2.7-2.7-2.7-7.1 0-9.8l55-55c2.7-2.7 7.1-2.7 9.8 0l311 311c2.7 2.7 2.7 7.1 0 9.8l-55 55c-2.7 2.7-7.1 2.7-9.8 0z" fill="#F89406" p-id="8385"></path><path d="M480.8 187.8l287.5 287.5c1.9 1.9 3.5 3.9 5 6 12.6-17.9 11-42.9-5-58.9l-255.9-256c-17.8-17.8-47-17.8-64.8 0-2.6 2.6-4.8 5.5-6.7 8.6 14.1-2.3 29.1 1.9 39.9 12.8z" fill="#F9A938" p-id="8386"></path><path d="M735.9 508.3c-12.8 0-24.8-5-33.8-14L440.4 232.7c-9-9-14-21-14-33.8 0-12.8 5-24.8 14-33.8l5.7-5.7c9-9 21-14 33.8-14s24.8 5 33.8 14L775.4 421c9 9 14 21 14 33.8 0 12.8-5 24.8-14 33.8l-5.7 5.7c-9 9-21 14-33.8 14zM480 157.4c-9.6 0-18.6 3.7-25.3 10.4l-5.7 5.7c-13.9 13.9-13.9 36.6 0 50.6l261.6 261.6c13.9 13.9 36.6 13.9 50.6 0l5.7-5.7c6.7-6.7 10.4-15.7 10.4-25.3s-3.7-18.6-10.4-25.3L505.3 167.9c-6.8-6.8-15.8-10.5-25.3-10.5z" fill="#414042" p-id="8387"></path><path d="M559.4 460.3h83.2v235.5h-83.2z" fill="#F89406" p-id="8388"></path><path d="M612.1 460.3h30.6v235.5h-30.6z" fill="#F9A938" p-id="8389"></path><path d="M648.7 701.8h-95.2V454.3h95.2v247.5z m-83.2-12.1h71.1V466.3h-71.1v223.4z" fill="#414042" p-id="8390"></path><path d="M816.4 787.2v-69.5c0-30.3-24.8-55-55-55H442.5c-30.3 0-55 24.8-55 55v69.5h428.9z" fill="#F89406" p-id="8391"></path><path d="M761.3 662.7H442.5c-30.3 0-55 24.8-55 55v33.1c0-30.3 24.8-55 55-55h318.9c30.3 0 55 24.8 55 55v-33.1c0-30.2-24.8-55-55.1-55z" fill="#FBBF6A" p-id="8392"></path><path d="M822.4 793.2h-441v-75.5c0-33.7 27.4-61.1 61.1-61.1h318.9c33.7 0 61.1 27.4 61.1 61.1v75.5z m-428.9-12h416.9v-63.5c0-27-22-49-49-49H442.5c-27 0-49 22-49 49v63.5z" fill="#414042" p-id="8393"></path><path d="M773.3 524.5H397.1c-5.3 0-9.7-4.4-9.7-9.7v-109c0-5.3 4.4-9.7 9.7-9.7h376.2c5.3 0 9.7 4.4 9.7 9.7v109c0 5.3-4.3 9.7-9.7 9.7z" fill="#F89406" p-id="8394"></path><path d="M451.6 429.2h267.2c29.6 0 54.6 20.3 61.9 47.7 1.4-5.3 2.3-10.8 2.3-16.5 0-35.3-28.9-64.2-64.2-64.2H451.6c-35.3 0-64.2 28.9-64.2 64.2 0 5.7 0.8 11.2 2.3 16.5 7.3-27.4 32.3-47.7 61.9-47.7z" fill="#FBBF6A" p-id="8395"></path><path d="M724.5 530.5H446c-35.6 0-64.6-29-64.6-64.6v-11.3c0-35.6 29-64.6 64.6-64.6h278.6c35.6 0 64.6 29 64.6 64.6V466c-0.1 35.5-29.1 64.5-64.7 64.5zM446 402.1c-28.9 0-52.5 23.5-52.5 52.5V466c0 28.9 23.5 52.5 52.5 52.5h278.6c28.9 0 52.5-23.5 52.5-52.5v-11.3c0-28.9-23.5-52.5-52.5-52.5H446z" fill="#414042" p-id="8396"></path><path d="M491.3 396.1h12.1v54h-12.1zM531 396.1h12.1v54H531zM570.7 396.1h12.1v54h-12.1zM476.662 248.863l32.668-32.668 8.556 8.556-32.668 32.668zM504.71 276.99l32.668-32.668 8.556 8.556-32.668 32.668zM532.757 304.974l32.668-32.668 8.556 8.556-32.668 32.668z" fill="#414042" p-id="8397"></path><path d="M890 161.1h23v107.7h-23z" fill="#F89406" p-id="8398"></path><path d="M919 274.8h-35V155h35v119.8z m-23-12h10.9v-95.7H896v95.7z" fill="#414042" p-id="8399"></path><path d="M908.82 311.321v-13.8h68.8v13.8z" fill="#F89406" p-id="8400"></path><path d="M983.7 317.4h-80.9v-25.8h80.9v25.8z m-68.8-12.1h56.8v-1.7h-56.8v1.7z" fill="#414042" p-id="8401"></path><path d="M259.7 674.9h47.6v68.3h-47.6z" fill="#F89406" p-id="8402"></path><path d="M290.3 674.9h15.4v68.3h-15.4z" fill="#FBBF6A" p-id="8403"></path><path d="M313.3 749.2h-59.7v-80.4h59.7v80.4z m-47.6-12.1h35.5v-56.2h-35.5v56.2z" fill="#414042" p-id="8404"></path><path d="M168.4 695.8H216v45.1h-47.6z" fill="#F89406" p-id="8405"></path><path d="M199 695.8h15.4v45.1H199z" fill="#FBBF6A" p-id="8406"></path><path d="M222.1 746.9h-59.7v-57.2h59.7v57.2z m-47.6-12H210v-33.1h-35.5v33.1z" fill="#414042" p-id="8407"></path><path d="M300.3 674.9h-33.6v-57.2l7.6-11.3c1.6-2.4 4.2-3.8 7-3.8h3.9c2.8 0 5.3 1.3 6.9 3.6l8.1 11.5v57.2z" fill="#F15A29" p-id="8408"></path><path d="M292.3 606.3l-0.2-0.2c-1.4-2-3.5-3.2-5.9-3.5-2.4 0.3-4.6 1.6-6 3.6l-7.6 11.3v57.2h12.1v-57.2l7.6-11.2z" fill="#F79C7F" p-id="8409"></path><path d="M306.3 680.9h-45.7v-65.1l8.6-12.9c2.7-4 7.2-6.4 12.1-6.4h3.9c4.7 0 9.1 2.3 11.8 6.1l9.2 13.1v65.2z m-33.6-12.1h21.6v-49.3l-7-10c-0.5-0.6-1.2-1-2-1h-3.9c-0.8 0-1.6 0.4-2 1.1l-6.6 9.8v49.4z" fill="#414042" p-id="8410"></path><path d="M186.2 578h12.1v117.5h-12.1z" fill="#414042" p-id="8411"></path><path d="M192.2 572.6m-23.5 0a23.5 23.5 0 1 0 47 0 23.5 23.5 0 1 0-47 0Z" fill="#FBBF6A" p-id="8412"></path><path d="M192.2 602.1c-16.3 0-29.5-13.2-29.5-29.5s13.2-29.5 29.5-29.5 29.5 13.2 29.5 29.5-13.2 29.5-29.5 29.5z m0-46.9c-9.6 0-17.4 7.8-17.4 17.4 0 9.6 7.8 17.4 17.4 17.4 9.6 0 17.4-7.8 17.4-17.4 0.1-9.6-7.8-17.4-17.4-17.4z" fill="#414042" p-id="8413"></path><path d="M934.6 424.4h12.1v27.2h-12.1z" fill="#414042" p-id="8414"></path><path d="M952.336 423.057l10.834-5.387 6.366 12.804-10.834 5.387z" fill="#414042" p-id="8415"></path><path d="M967.877 414.447l9.269-7.779 17.487 20.836-9.269 7.779z" fill="#414042" p-id="8416"></path><path d="M979.265 401.245l7.412-9.565 8.774 6.8-7.411 9.564z" fill="#414042" p-id="8417"></path><path d="M986.97 385.52l2.102-11.917 26.787 4.725-2.102 11.916z" fill="#414042" p-id="8418"></path><path d="M985.697 356.084l14.47-3.108 2.54 11.83-14.47 3.108z" fill="#414042" p-id="8419"></path><path d="M977.032 340.613l23.558-13.598 6.049 10.48-23.558 13.597z" fill="#414042" p-id="8420"></path><path d="M890.315 329.766l9.861-7.01 7.533 10.594-9.862 7.011z" fill="#414042" p-id="8421"></path><path d="M865.618 342.61l6.049-10.48 23.557 13.597-6.048 10.48z" fill="#414042" p-id="8422"></path><path d="M872.764 371.465l2.102-11.916 13.393 2.362-2.102 11.917z" fill="#414042" p-id="8423"></path><path d="M860.466 384.267l26.786-4.727 2.103 11.916-26.786 4.727z" fill="#414042" p-id="8424"></path><path d="M880.458 403.285l11.776-6.801 6.052 10.477-11.777 6.801z" fill="#414042" p-id="8425"></path><path d="M885.283 431.461l17.473-20.846 9.273 7.773-17.473 20.846z" fill="#414042" p-id="8426"></path><path d="M911.521 435.875l5.985-15.591 11.297 4.337-5.985 15.59z" fill="#414042" p-id="8427"></path></svg>