<?xml version="1.0" standalone="no"?><!DOCTYPE svg PUBLIC "-//W3C//DTD SVG 1.1//EN" "http://www.w3.org/Graphics/SVG/1.1/DTD/svg11.dtd"><svg t="1532999329817" class="icon" style="" viewBox="0 0 1024 1024" version="1.1" xmlns="http://www.w3.org/2000/svg" p-id="7403" xmlns:xlink="http://www.w3.org/1999/xlink" width="200" height="200"><defs><style type="text/css"></style></defs><path d="M32 1024h960a32 32 0 0 0 0-64h-96V560a32 32 0 0 0-64 0v208H192V384a320 320 0 0 1 640 0v16a32 32 0 0 0 64 0v-16a384 384 0 0 0-768 0v576H32a32 32 0 0 0 0 64z m160-192h640v128H192z" fill="#1afa29" p-id="7404"></path><path d="M598.56 249.44a32 32 0 0 0-45.28 0l-112 112a32 32 0 0 0 2.08 48L512 466.08l-87.2 87.2a32 32 0 1 0 45.28 45.28l112-112a32 32 0 0 0-2.08-48L512 381.92l87.2-87.2a32 32 0 0 0-0.64-45.28z" fill="#1afa29" p-id="7405"></path></svg>